<svg width="710" height="572" viewBox="0 0 710 572" fill="none" xmlns="http://www.w3.org/2000/svg">
<g filter="url(#filter0_d_9_7)">
<mask id="mask0_9_7" style="mask-type:alpha" maskUnits="userSpaceOnUse" x="10" y="6" width="690" height="552">
<path d="M79.1156 557.692C60.1486 557.692 43.9116 550.944 30.4048 537.446C16.898 523.949 10.1445 507.723 10.1445 488.769V75.2308C10.1445 56.2769 16.898 40.0513 30.4048 26.5538C43.9116 13.0564 60.1486 6.30769 79.1156 6.30769H286.029L355 75.2308H630.885C649.852 75.2308 666.089 81.9795 679.595 95.4769C693.102 108.974 699.856 125.2 699.856 144.154V488.769C699.856 507.723 693.102 523.949 679.595 537.446C666.089 550.944 649.852 557.692 630.885 557.692H79.1156Z" fill="#E8EAED"/>
</mask>
<g mask="url(#mask0_9_7)">
<rect x="-78.2307" y="413.602" width="864.54" height="151.775" fill="#694478"/>
<rect x="-78.2307" y="271.433" width="864.54" height="153.696" fill="#765085"/>
<rect x="-76.3094" y="129.265" width="864.54" height="155.617" fill="#90689F"/>
<rect x="-76.3094" y="4.38649" width="864.54" height="140.248" fill="#AB82BA"/>
</g>
<g filter="url(#filter1_d_9_7)">
<mask id="path-6-outside-1_9_7" maskUnits="userSpaceOnUse" x="207.949" y="163.767" width="294" height="323" fill="black">
<rect fill="white" x="207.949" y="163.767" width="294" height="323"/>
<path d="M354.526 204.905C382.922 204.905 409.71 210.962 434.891 223.076C460.073 235.19 481.101 252.695 497.978 275.592C499.853 277.988 500.456 280.118 499.786 281.982C499.117 283.845 497.978 285.443 496.371 286.774C494.764 288.105 492.888 288.704 490.745 288.571C488.602 288.438 486.727 287.307 485.12 285.177C470.386 264.41 451.433 248.502 428.261 237.453C405.089 226.404 380.511 220.879 354.526 220.879C328.542 220.879 304.164 226.404 281.394 237.453C258.624 248.502 239.738 264.41 224.737 285.177C223.129 287.573 221.254 288.904 219.111 289.17C216.968 289.437 215.093 288.904 213.485 287.573C211.61 286.242 210.472 284.578 210.07 282.581C209.668 280.584 210.271 278.521 211.878 276.391C228.487 253.76 249.315 236.188 274.362 223.675C299.409 211.162 326.131 204.905 354.526 204.905ZM354.526 242.445C390.691 242.445 421.765 254.426 447.75 278.388C473.735 302.349 486.727 332.035 486.727 367.445C486.727 380.757 481.972 391.873 472.462 400.792C462.952 409.711 451.366 414.171 437.704 414.171C424.042 414.171 412.322 409.711 402.545 400.792C392.767 391.873 387.878 380.757 387.878 367.445C387.878 358.659 384.596 351.271 378.033 345.281C371.47 339.29 363.634 336.295 354.526 336.295C345.418 336.295 337.583 339.29 331.02 345.281C324.456 351.271 321.175 358.659 321.175 367.445C321.175 393.271 328.876 414.836 344.28 432.142C359.683 449.448 379.573 461.562 403.951 468.484C406.362 469.283 407.969 470.614 408.773 472.478C409.576 474.341 409.71 476.338 409.175 478.468C408.639 480.332 407.567 481.929 405.96 483.26C404.353 484.592 402.344 484.991 399.933 484.458C372.073 477.536 349.303 463.758 331.622 443.124C313.942 422.491 305.102 397.264 305.102 367.445C305.102 354.133 309.924 342.951 319.567 333.899C329.211 324.847 340.864 320.321 354.526 320.321C368.188 320.321 379.841 324.847 389.485 333.899C399.129 342.951 403.951 354.133 403.951 367.445C403.951 376.231 407.299 383.619 413.997 389.61C420.694 395.6 428.596 398.596 437.704 398.596C446.812 398.596 454.581 395.6 461.01 389.61C467.439 383.619 470.654 376.231 470.654 367.445C470.654 336.561 459.269 310.603 436.499 289.57C413.729 268.537 386.538 258.02 354.928 258.02C323.318 258.02 296.128 268.537 273.358 289.57C250.587 310.603 239.202 336.428 239.202 367.046C239.202 373.436 239.805 381.423 241.011 391.008C242.216 400.592 245.096 411.775 249.65 424.554C250.453 426.95 250.386 429.08 249.449 430.944C248.511 432.808 246.971 434.139 244.828 434.938C242.685 435.736 240.609 435.67 238.6 434.738C236.59 433.806 235.184 432.275 234.38 430.145C230.362 419.762 227.482 409.445 225.741 399.195C224 388.944 223.129 378.361 223.129 367.445C223.129 332.035 236.055 302.349 261.905 278.388C287.756 254.426 318.63 242.445 354.526 242.445ZM354.526 165.767C371.671 165.767 388.414 167.831 404.755 171.957C421.095 176.084 436.901 182.008 452.17 189.729C454.581 191.06 455.987 192.658 456.389 194.521C456.791 196.385 456.59 198.249 455.786 200.113C454.983 201.976 453.643 203.441 451.768 204.506C449.893 205.57 447.616 205.437 444.937 204.106C430.739 196.918 416.073 191.393 400.937 187.533C385.802 183.672 370.331 181.742 354.526 181.742C338.989 181.742 323.72 183.539 308.718 187.133C293.717 190.728 279.385 196.385 265.723 204.106C263.58 205.437 261.437 205.77 259.294 205.105C257.151 204.439 255.543 203.041 254.472 200.911C253.4 198.781 253.132 196.851 253.668 195.12C254.204 193.39 255.543 191.859 257.686 190.528C272.688 182.541 288.359 176.417 304.7 172.157C321.041 167.897 337.65 165.767 354.526 165.767ZM354.526 281.183C379.44 281.183 400.87 289.503 418.818 306.143C436.767 322.783 445.741 343.217 445.741 367.445C445.741 369.841 445.004 371.772 443.531 373.236C442.057 374.7 440.115 375.433 437.704 375.433C435.561 375.433 433.686 374.7 432.079 373.236C430.471 371.772 429.668 369.841 429.668 367.445C429.668 347.477 422.234 330.771 407.366 317.325C392.499 303.88 374.885 297.158 354.526 297.158C334.167 297.158 316.688 303.88 302.088 317.325C287.488 330.771 280.189 347.477 280.189 367.445C280.189 389.011 283.939 407.315 291.44 422.358C298.94 437.4 309.924 452.509 324.389 467.685C325.997 469.283 326.8 471.146 326.8 473.276C326.8 475.406 325.997 477.27 324.389 478.867C322.782 480.465 320.907 481.264 318.764 481.264C316.621 481.264 314.746 480.465 313.138 478.867C297.333 462.36 285.211 445.521 276.773 428.348C268.335 411.175 264.116 390.875 264.116 367.445C264.116 343.217 272.956 322.783 290.636 306.143C308.316 289.503 329.613 281.183 354.526 281.183ZM354.124 359.458C356.535 359.458 358.478 360.257 359.951 361.854C361.424 363.452 362.161 365.315 362.161 367.445C362.161 387.413 369.394 403.787 383.86 416.567C398.325 429.346 415.202 435.736 434.49 435.736C436.097 435.736 438.374 435.603 441.321 435.337C444.267 435.071 447.348 434.671 450.563 434.139C452.974 433.606 455.05 433.939 456.791 435.137C458.532 436.335 459.671 438.132 460.207 440.529C460.742 442.659 460.34 444.522 459.001 446.12C457.662 447.717 455.92 448.782 453.777 449.315C448.955 450.646 444.736 451.378 441.12 451.511C437.503 451.644 435.293 451.711 434.49 451.711C410.648 451.711 389.954 443.724 372.408 427.749C354.861 411.775 346.088 391.673 346.088 367.445C346.088 365.315 346.825 363.452 348.298 361.854C349.771 360.257 351.714 359.458 354.124 359.458Z"/>
</mask>
<path d="M354.526 204.905C382.922 204.905 409.71 210.962 434.891 223.076C460.073 235.19 481.101 252.695 497.978 275.592C499.853 277.988 500.456 280.118 499.786 281.982C499.117 283.845 497.978 285.443 496.371 286.774C494.764 288.105 492.888 288.704 490.745 288.571C488.602 288.438 486.727 287.307 485.12 285.177C470.386 264.41 451.433 248.502 428.261 237.453C405.089 226.404 380.511 220.879 354.526 220.879C328.542 220.879 304.164 226.404 281.394 237.453C258.624 248.502 239.738 264.41 224.737 285.177C223.129 287.573 221.254 288.904 219.111 289.17C216.968 289.437 215.093 288.904 213.485 287.573C211.61 286.242 210.472 284.578 210.07 282.581C209.668 280.584 210.271 278.521 211.878 276.391C228.487 253.76 249.315 236.188 274.362 223.675C299.409 211.162 326.131 204.905 354.526 204.905ZM354.526 242.445C390.691 242.445 421.765 254.426 447.75 278.388C473.735 302.349 486.727 332.035 486.727 367.445C486.727 380.757 481.972 391.873 472.462 400.792C462.952 409.711 451.366 414.171 437.704 414.171C424.042 414.171 412.322 409.711 402.545 400.792C392.767 391.873 387.878 380.757 387.878 367.445C387.878 358.659 384.596 351.271 378.033 345.281C371.47 339.29 363.634 336.295 354.526 336.295C345.418 336.295 337.583 339.29 331.02 345.281C324.456 351.271 321.175 358.659 321.175 367.445C321.175 393.271 328.876 414.836 344.28 432.142C359.683 449.448 379.573 461.562 403.951 468.484C406.362 469.283 407.969 470.614 408.773 472.478C409.576 474.341 409.71 476.338 409.175 478.468C408.639 480.332 407.567 481.929 405.96 483.26C404.353 484.592 402.344 484.991 399.933 484.458C372.073 477.536 349.303 463.758 331.622 443.124C313.942 422.491 305.102 397.264 305.102 367.445C305.102 354.133 309.924 342.951 319.567 333.899C329.211 324.847 340.864 320.321 354.526 320.321C368.188 320.321 379.841 324.847 389.485 333.899C399.129 342.951 403.951 354.133 403.951 367.445C403.951 376.231 407.299 383.619 413.997 389.61C420.694 395.6 428.596 398.596 437.704 398.596C446.812 398.596 454.581 395.6 461.01 389.61C467.439 383.619 470.654 376.231 470.654 367.445C470.654 336.561 459.269 310.603 436.499 289.57C413.729 268.537 386.538 258.02 354.928 258.02C323.318 258.02 296.128 268.537 273.358 289.57C250.587 310.603 239.202 336.428 239.202 367.046C239.202 373.436 239.805 381.423 241.011 391.008C242.216 400.592 245.096 411.775 249.65 424.554C250.453 426.95 250.386 429.08 249.449 430.944C248.511 432.808 246.971 434.139 244.828 434.938C242.685 435.736 240.609 435.67 238.6 434.738C236.59 433.806 235.184 432.275 234.38 430.145C230.362 419.762 227.482 409.445 225.741 399.195C224 388.944 223.129 378.361 223.129 367.445C223.129 332.035 236.055 302.349 261.905 278.388C287.756 254.426 318.63 242.445 354.526 242.445ZM354.526 165.767C371.671 165.767 388.414 167.831 404.755 171.957C421.095 176.084 436.901 182.008 452.17 189.729C454.581 191.06 455.987 192.658 456.389 194.521C456.791 196.385 456.59 198.249 455.786 200.113C454.983 201.976 453.643 203.441 451.768 204.506C449.893 205.57 447.616 205.437 444.937 204.106C430.739 196.918 416.073 191.393 400.937 187.533C385.802 183.672 370.331 181.742 354.526 181.742C338.989 181.742 323.72 183.539 308.718 187.133C293.717 190.728 279.385 196.385 265.723 204.106C263.58 205.437 261.437 205.77 259.294 205.105C257.151 204.439 255.543 203.041 254.472 200.911C253.4 198.781 253.132 196.851 253.668 195.12C254.204 193.39 255.543 191.859 257.686 190.528C272.688 182.541 288.359 176.417 304.7 172.157C321.041 167.897 337.65 165.767 354.526 165.767ZM354.526 281.183C379.44 281.183 400.87 289.503 418.818 306.143C436.767 322.783 445.741 343.217 445.741 367.445C445.741 369.841 445.004 371.772 443.531 373.236C442.057 374.7 440.115 375.433 437.704 375.433C435.561 375.433 433.686 374.7 432.079 373.236C430.471 371.772 429.668 369.841 429.668 367.445C429.668 347.477 422.234 330.771 407.366 317.325C392.499 303.88 374.885 297.158 354.526 297.158C334.167 297.158 316.688 303.88 302.088 317.325C287.488 330.771 280.189 347.477 280.189 367.445C280.189 389.011 283.939 407.315 291.44 422.358C298.94 437.4 309.924 452.509 324.389 467.685C325.997 469.283 326.8 471.146 326.8 473.276C326.8 475.406 325.997 477.27 324.389 478.867C322.782 480.465 320.907 481.264 318.764 481.264C316.621 481.264 314.746 480.465 313.138 478.867C297.333 462.36 285.211 445.521 276.773 428.348C268.335 411.175 264.116 390.875 264.116 367.445C264.116 343.217 272.956 322.783 290.636 306.143C308.316 289.503 329.613 281.183 354.526 281.183ZM354.124 359.458C356.535 359.458 358.478 360.257 359.951 361.854C361.424 363.452 362.161 365.315 362.161 367.445C362.161 387.413 369.394 403.787 383.86 416.567C398.325 429.346 415.202 435.736 434.49 435.736C436.097 435.736 438.374 435.603 441.321 435.337C444.267 435.071 447.348 434.671 450.563 434.139C452.974 433.606 455.05 433.939 456.791 435.137C458.532 436.335 459.671 438.132 460.207 440.529C460.742 442.659 460.34 444.522 459.001 446.12C457.662 447.717 455.92 448.782 453.777 449.315C448.955 450.646 444.736 451.378 441.12 451.511C437.503 451.644 435.293 451.711 434.49 451.711C410.648 451.711 389.954 443.724 372.408 427.749C354.861 411.775 346.088 391.673 346.088 367.445C346.088 365.315 346.825 363.452 348.298 361.854C349.771 360.257 351.714 359.458 354.124 359.458Z" fill="white"/>
<path d="M354.526 204.905C382.922 204.905 409.71 210.962 434.891 223.076C460.073 235.19 481.101 252.695 497.978 275.592C499.853 277.988 500.456 280.118 499.786 281.982C499.117 283.845 497.978 285.443 496.371 286.774C494.764 288.105 492.888 288.704 490.745 288.571C488.602 288.438 486.727 287.307 485.12 285.177C470.386 264.41 451.433 248.502 428.261 237.453C405.089 226.404 380.511 220.879 354.526 220.879C328.542 220.879 304.164 226.404 281.394 237.453C258.624 248.502 239.738 264.41 224.737 285.177C223.129 287.573 221.254 288.904 219.111 289.17C216.968 289.437 215.093 288.904 213.485 287.573C211.61 286.242 210.472 284.578 210.07 282.581C209.668 280.584 210.271 278.521 211.878 276.391C228.487 253.76 249.315 236.188 274.362 223.675C299.409 211.162 326.131 204.905 354.526 204.905ZM354.526 242.445C390.691 242.445 421.765 254.426 447.75 278.388C473.735 302.349 486.727 332.035 486.727 367.445C486.727 380.757 481.972 391.873 472.462 400.792C462.952 409.711 451.366 414.171 437.704 414.171C424.042 414.171 412.322 409.711 402.545 400.792C392.767 391.873 387.878 380.757 387.878 367.445C387.878 358.659 384.596 351.271 378.033 345.281C371.47 339.29 363.634 336.295 354.526 336.295C345.418 336.295 337.583 339.29 331.02 345.281C324.456 351.271 321.175 358.659 321.175 367.445C321.175 393.271 328.876 414.836 344.28 432.142C359.683 449.448 379.573 461.562 403.951 468.484C406.362 469.283 407.969 470.614 408.773 472.478C409.576 474.341 409.71 476.338 409.175 478.468C408.639 480.332 407.567 481.929 405.96 483.26C404.353 484.592 402.344 484.991 399.933 484.458C372.073 477.536 349.303 463.758 331.622 443.124C313.942 422.491 305.102 397.264 305.102 367.445C305.102 354.133 309.924 342.951 319.567 333.899C329.211 324.847 340.864 320.321 354.526 320.321C368.188 320.321 379.841 324.847 389.485 333.899C399.129 342.951 403.951 354.133 403.951 367.445C403.951 376.231 407.299 383.619 413.997 389.61C420.694 395.6 428.596 398.596 437.704 398.596C446.812 398.596 454.581 395.6 461.01 389.61C467.439 383.619 470.654 376.231 470.654 367.445C470.654 336.561 459.269 310.603 436.499 289.57C413.729 268.537 386.538 258.02 354.928 258.02C323.318 258.02 296.128 268.537 273.358 289.57C250.587 310.603 239.202 336.428 239.202 367.046C239.202 373.436 239.805 381.423 241.011 391.008C242.216 400.592 245.096 411.775 249.65 424.554C250.453 426.95 250.386 429.08 249.449 430.944C248.511 432.808 246.971 434.139 244.828 434.938C242.685 435.736 240.609 435.67 238.6 434.738C236.59 433.806 235.184 432.275 234.38 430.145C230.362 419.762 227.482 409.445 225.741 399.195C224 388.944 223.129 378.361 223.129 367.445C223.129 332.035 236.055 302.349 261.905 278.388C287.756 254.426 318.63 242.445 354.526 242.445ZM354.526 165.767C371.671 165.767 388.414 167.831 404.755 171.957C421.095 176.084 436.901 182.008 452.17 189.729C454.581 191.06 455.987 192.658 456.389 194.521C456.791 196.385 456.59 198.249 455.786 200.113C454.983 201.976 453.643 203.441 451.768 204.506C449.893 205.57 447.616 205.437 444.937 204.106C430.739 196.918 416.073 191.393 400.937 187.533C385.802 183.672 370.331 181.742 354.526 181.742C338.989 181.742 323.72 183.539 308.718 187.133C293.717 190.728 279.385 196.385 265.723 204.106C263.58 205.437 261.437 205.77 259.294 205.105C257.151 204.439 255.543 203.041 254.472 200.911C253.4 198.781 253.132 196.851 253.668 195.12C254.204 193.39 255.543 191.859 257.686 190.528C272.688 182.541 288.359 176.417 304.7 172.157C321.041 167.897 337.65 165.767 354.526 165.767ZM354.526 281.183C379.44 281.183 400.87 289.503 418.818 306.143C436.767 322.783 445.741 343.217 445.741 367.445C445.741 369.841 445.004 371.772 443.531 373.236C442.057 374.7 440.115 375.433 437.704 375.433C435.561 375.433 433.686 374.7 432.079 373.236C430.471 371.772 429.668 369.841 429.668 367.445C429.668 347.477 422.234 330.771 407.366 317.325C392.499 303.88 374.885 297.158 354.526 297.158C334.167 297.158 316.688 303.88 302.088 317.325C287.488 330.771 280.189 347.477 280.189 367.445C280.189 389.011 283.939 407.315 291.44 422.358C298.94 437.4 309.924 452.509 324.389 467.685C325.997 469.283 326.8 471.146 326.8 473.276C326.8 475.406 325.997 477.27 324.389 478.867C322.782 480.465 320.907 481.264 318.764 481.264C316.621 481.264 314.746 480.465 313.138 478.867C297.333 462.36 285.211 445.521 276.773 428.348C268.335 411.175 264.116 390.875 264.116 367.445C264.116 343.217 272.956 322.783 290.636 306.143C308.316 289.503 329.613 281.183 354.526 281.183ZM354.124 359.458C356.535 359.458 358.478 360.257 359.951 361.854C361.424 363.452 362.161 365.315 362.161 367.445C362.161 387.413 369.394 403.787 383.86 416.567C398.325 429.346 415.202 435.736 434.49 435.736C436.097 435.736 438.374 435.603 441.321 435.337C444.267 435.071 447.348 434.671 450.563 434.139C452.974 433.606 455.05 433.939 456.791 435.137C458.532 436.335 459.671 438.132 460.207 440.529C460.742 442.659 460.34 444.522 459.001 446.12C457.662 447.717 455.92 448.782 453.777 449.315C448.955 450.646 444.736 451.378 441.12 451.511C437.503 451.644 435.293 451.711 434.49 451.711C410.648 451.711 389.954 443.724 372.408 427.749C354.861 411.775 346.088 391.673 346.088 367.445C346.088 365.315 346.825 363.452 348.298 361.854C349.771 360.257 351.714 359.458 354.124 359.458Z" stroke="white" stroke-width="3" mask="url(#path-6-outside-1_9_7)"/>
</g>
</g>
<defs>
<filter id="filter0_d_9_7" x="0.144531" y="0.307693" width="709.711" height="571.385" filterUnits="userSpaceOnUse" color-interpolation-filters="sRGB">
<feFlood flood-opacity="0" result="BackgroundImageFix"/>
<feColorMatrix in="SourceAlpha" type="matrix" values="0 0 0 0 0 0 0 0 0 0 0 0 0 0 0 0 0 0 127 0" result="hardAlpha"/>
<feOffset dy="4"/>
<feGaussianBlur stdDeviation="5"/>
<feComposite in2="hardAlpha" operator="out"/>
<feColorMatrix type="matrix" values="0 0 0 0 0 0 0 0 0 0 0 0 0 0 0 0 0 0 0.25 0"/>
<feBlend mode="normal" in2="BackgroundImageFix" result="effect1_dropShadow_9_7"/>
<feBlend mode="normal" in="SourceGraphic" in2="effect1_dropShadow_9_7" result="shape"/>
</filter>
<filter id="filter1_d_9_7" x="198.449" y="158.267" width="313.104" height="341.919" filterUnits="userSpaceOnUse" color-interpolation-filters="sRGB">
<feFlood flood-opacity="0" result="BackgroundImageFix"/>
<feColorMatrix in="SourceAlpha" type="matrix" values="0 0 0 0 0 0 0 0 0 0 0 0 0 0 0 0 0 0 127 0" result="hardAlpha"/>
<feOffset dy="4"/>
<feGaussianBlur stdDeviation="5"/>
<feComposite in2="hardAlpha" operator="out"/>
<feColorMatrix type="matrix" values="0 0 0 0 0 0 0 0 0 0 0 0 0 0 0 0 0 0 0.25 0"/>
<feBlend mode="normal" in2="BackgroundImageFix" result="effect1_dropShadow_9_7"/>
<feBlend mode="normal" in="SourceGraphic" in2="effect1_dropShadow_9_7" result="shape"/>
</filter>
</defs>
</svg>
